HIERARCHY
ROOT Hips
{
	OFFSET 0.00000 0.00000 0.00000
	CHANNELS 6 Xposition Yposition Zposition Zrotation Yrotation Xrotation 
	JOINT LHipJoint
	{
		OFFSET 0 0 0
		CHANNELS 3 Zrotation Yrotation Xrotation
		JOINT LeftUpLeg
		{
			OFFSET 1.53139 -1.83434 0.76626
			CHANNELS 3 Zrotation Yrotation Xrotation
			JOINT LeftLeg
			{
				OFFSET 2.56112 -7.03663 0.00000
				CHANNELS 3 Zrotation Yrotation Xrotation
				JOINT LeftFoot
				{
					OFFSET 2.59983 -7.14299 0.00000
					CHANNELS 3 Zrotation Yrotation Xrotation
					JOINT LeftToeBase
					{
						OFFSET 0.13742 -0.37757 2.00054
						CHANNELS 3 Zrotation Yrotation Xrotation
						End Site
						{
							OFFSET 0.00000 -0.00000 1.02897
						}
					}
				}
			}
		}
	}
	JOINT RHipJoint
	{
		OFFSET 0 0 0
		CHANNELS 3 Zrotation Yrotation Xrotation
		JOINT RightUpLeg
		{
			OFFSET -1.40122 -1.83435 0.76627
			CHANNELS 3 Zrotation Yrotation Xrotation
			JOINT RightLeg
			{
				OFFSET -2.54052 -6.98003 0.00000
				CHANNELS 3 Zrotation Yrotation Xrotation
				JOINT RightFoot
				{
					OFFSET -2.63179 -7.23079 0.00000
					CHANNELS 3 Zrotation Yrotation Xrotation
					JOINT RightToeBase
					{
						OFFSET -0.24131 -0.66299 2.03908
						CHANNELS 3 Zrotation Yrotation Xrotation
						End Site
						{
							OFFSET -0.00000 -0.00000 1.07391
						}
					}
				}
			}
		}
	}
	JOINT LowerBack
	{
		OFFSET 0 0 0
		CHANNELS 3 Zrotation Yrotation Xrotation
		JOINT Spine
		{
			OFFSET 0.01174 2.10302 -0.29778
			CHANNELS 3 Zrotation Yrotation Xrotation
			JOINT Spine1
			{
				OFFSET 0.00772 2.13227 -0.01247
				CHANNELS 3 Zrotation Yrotation Xrotation
				JOINT Neck
				{
					OFFSET 0 0 0
					CHANNELS 3 Zrotation Yrotation Xrotation
					JOINT Neck1
					{
						OFFSET -0.09219 1.60848 0.31481
						CHANNELS 3 Zrotation Yrotation Xrotation
						JOINT Head
						{
							OFFSET 0.13974 1.65456 -0.31134
							CHANNELS 3 Zrotation Yrotation Xrotation
							End Site
							{
								OFFSET 0.04742 1.69515 -0.14578
							}
						}
					}
				}
				JOINT LeftShoulder
				{
					OFFSET 0 0 0
					CHANNELS 3 Zrotation Yrotation Xrotation
					JOINT LeftArm
					{
						OFFSET 3.24909 1.02882 -0.23993
						CHANNELS 3 Zrotation Yrotation Xrotation
						JOINT LeftForeArm
						{
							OFFSET 5.32955 -0.00000 -0.00000
							CHANNELS 3 Zrotation Yrotation Xrotation
							JOINT LeftHand
							{
								OFFSET 3.69232 -0.00000 -0.00000
								CHANNELS 3 Zrotation Yrotation Xrotation
								JOINT LeftFingerBase
								{
									OFFSET 0 0 0
									CHANNELS 3 Zrotation Yrotation Xrotation
									JOINT LeftHandIndex1
									{
										OFFSET 0.53660 -0.00000 -0.00000
										CHANNELS 3 Zrotation Yrotation Xrotation
										End Site
										{
											OFFSET 0.43262 -0.00000 -0.00000
										}
									}
								}
								JOINT LThumb
								{
									OFFSET 0 0 0
									CHANNELS 3 Zrotation Yrotation Xrotation
									End Site
									{
										OFFSET 0.43922 -0.00000 0.43922
									}
								}
							}
						}
					}
				}
				JOINT RightShoulder
				{
					OFFSET 0 0 0
					CHANNELS 3 Zrotation Yrotation Xrotation
					JOINT RightArm
					{
						OFFSET -3.21387 0.93002 -0.34594
						CHANNELS 3 Zrotation Yrotation Xrotation
						JOINT RightForeArm
						{
							OFFSET -5.23431 -0.00000 0.00000
							CHANNELS 3 Zrotation Yrotation Xrotation
							JOINT RightHand
							{
								OFFSET -3.55301 -0.00000 -0.00000
								CHANNELS 3 Zrotation Yrotation Xrotation
								JOINT RightFingerBase
								{
									OFFSET 0 0 0
									CHANNELS 3 Zrotation Yrotation Xrotation
									JOINT RightHandIndex1
									{
										OFFSET -0.77252 -0.00000 -0.00000
										CHANNELS 3 Zrotation Yrotation Xrotation
										End Site
										{
											OFFSET -0.62283 -0.00000 -0.00000
										}
									}
								}
								JOINT RThumb
								{
									OFFSET 0 0 0
									CHANNELS 3 Zrotation Yrotation Xrotation
									End Site
									{
										OFFSET -0.63234 -0.00000 0.63234
									}
								}
							}
						}
					}
				}
			}
		}
	}
}
MOTION
Frames: 7
Frame Time: .0083333
-7.1731 17.5083 8.3217 -176.3690 38.7586 -180.3600 0.0000 0.0000 0.0000 -3.1625 -15.9007 0.1158 1.7377 8.2969 23.6195 -0.0428 -12.6451 -8.2954 0.8176 -5.7697 -16.1175 0.0000 0.0000 0.0000 12.5006 5.8863 0.0259 -1.5696 -7.9054 22.4271 -0.6439 12.9206 -15.8157 -0.8290 5.8087 -16.2302 -1.6309 1.4542 13.4726 1.0041 1.8337 0.5608 1.6270 0.9982 -7.0556 -12.2641 -8.2051 -17.0978 9.5626 -10.1212 30.4906 4.2833 -4.1291 14.5671 -0.0000 0.0000 0.0000 -81.8082 5.8954 13.7690 20.5678 -31.3204 -5.8236 -0.0000 -0.0000 3.0740 16.3588 25.5582 7.2175 -7.1250 0.0000 -0.0000 -14.4734 55.8813 -3.9227 -0.0000 0.0000 0.0000 89.5603 -3.9280 12.9889 -19.5416 30.0861 -5.2996 0.0000 0.0000 6.8427 -20.8862 3.7397 -1.4257 7.1250 -0.0000 -0.0000 4.3464 -25.9746 2.0092
-7.0909 17.5251 8.4025 -175.9960 38.4241 -180.1210 0.0000 0.0000 0.0000 -2.4973 -15.7745 -0.3789 1.8104 8.4594 24.1185 -0.0520 -12.2579 -7.8725 0.8268 -5.8012 -16.2088 0.0000 0.0000 0.0000 13.2635 5.6439 -0.0482 -1.5688 -7.9034 22.4211 -0.6444 12.7974 -15.7769 -0.7691 5.5999 -15.6279 -1.3413 1.4795 13.3322 1.0831 1.9257 0.7177 1.5335 1.0358 -6.8065 -12.2845 -8.1993 -17.2307 9.5728 -10.0983 30.4042 4.2882 -4.1214 14.5564 -0.0000 0.0000 0.0000 -82.0311 5.6482 13.3554 20.4875 -31.2253 -5.7820 -0.0000 -0.0000 3.1238 17.1079 25.4220 7.5268 -7.1250 0.0000 -0.0000 -13.6333 55.8985 -3.6944 -0.0000 0.0000 0.0000 89.4583 -3.4944 13.2596 -19.4033 29.9167 -5.2305 0.0000 0.0000 7.0217 -20.6014 4.1204 -1.5471 7.1250 -0.0000 -0.0000 4.5539 -25.5766 2.1481
-7.0069 17.5437 8.4833 -175.9310 37.9746 -180.1060 0.0000 0.0000 0.0000 -2.1417 -15.5168 -0.8998 1.8748 8.6003 24.5529 -0.0461 -11.6247 -7.4744 0.9024 -6.0541 -16.9414 0.0000 0.0000 0.0000 13.7894 5.3382 -0.0413 -1.5656 -7.8956 22.3974 -0.6568 12.5127 -15.7903 -0.7433 5.5073 -15.3613 -1.2997 1.4935 13.1986 1.0861 1.9604 0.9254 1.5117 1.0525 -6.5106 -12.2020 -8.2092 -17.4484 9.5252 -10.1102 30.2768 4.2400 -4.1253 14.5394 -0.0000 0.0000 0.0000 -82.2489 5.3573 12.9057 20.3406 -31.0505 -5.7060 -0.0000 -0.0000 3.6567 19.0690 23.4410 7.8297 -7.1250 0.0000 -0.0000 -10.6953 54.3056 -2.4672 -0.0000 0.0000 0.0000 89.3863 -2.9805 13.3221 -19.2460 29.7232 -5.1522 0.0000 0.0000 7.6043 -20.1510 4.5098 -1.6527 7.1250 -0.0000 -0.0000 4.8849 -25.1759 2.3509
-6.9233 17.5701 8.5639 -176.0730 37.4914 -180.1030 0.0000 0.0000 0.0000 -2.1065 -15.6759 -1.3215 1.9362 8.7318 24.9599 0.0074 -10.2203 -7.2864 0.9657 -6.2567 -17.5311 0.0000 0.0000 0.0000 14.1333 5.1404 -0.0746 -1.5547 -7.8694 22.3182 -0.6772 12.1138 -15.8428 -0.7187 5.4176 -15.1036 -1.4565 1.4882 13.1022 1.0242 1.9289 0.9936 1.5438 1.0404 -6.3859 -12.0191 -8.1721 -17.5645 9.4577 -10.0823 30.2057 4.1800 -4.1007 14.5106 0.0000 -0.0000 0.0000 -82.3947 5.3511 12.5322 20.1704 -30.8471 -5.6185 -0.0000 -0.0000 4.5313 19.8746 21.7015 7.6136 -7.1250 0.0000 -0.0000 -9.1925 52.6855 -1.7505 0.0000 -0.0000 0.0000 89.4045 -2.6887 13.3202 -19.1561 29.6121 -5.1077 0.0000 0.0000 8.2251 -19.5842 5.0008 -1.7763 7.1250 -0.0000 -0.0000 5.2991 -24.6741 2.6138
-6.8430 17.6016 8.6403 -176.3330 36.9680 -180.1620 0.0000 0.0000 0.0000 -2.3570 -16.2961 -1.5180 1.9990 8.8639 25.3706 0.0718 -8.3046 -7.1650 0.8859 -5.9999 -16.7840 0.0000 0.0000 0.0000 14.3389 4.9253 -0.1047 -1.5371 -7.8268 22.1891 -0.6869 11.7511 -15.8178 -0.6614 5.2015 -14.4842 -1.6401 1.4721 13.0658 0.9297 1.8728 0.9703 1.5588 1.0161 -6.3906 -11.9301 -8.1286 -17.5764 9.4420 -10.0338 30.2353 4.1697 -4.0678 14.5120 0.0000 -0.0000 0.0000 -82.5233 5.5324 12.3748 20.1252 -30.7929 -5.5953 -0.0000 -0.0000 5.0627 19.8795 21.6354 7.5938 -7.1250 0.0000 -0.0000 -9.1635 52.6187 -1.7298 0.0000 -0.0000 0.0000 89.4638 -2.5944 13.2953 -19.1371 29.5886 -5.0984 0.0000 0.0000 8.6342 -19.1996 5.3513 -1.8601 7.1250 -0.0000 -0.0000 5.5782 -24.3174 2.7989
-6.7654 17.6297 8.7149 -176.4780 36.3997 -180.1760 0.0000 0.0000 0.0000 -2.5016 -16.4996 -1.9246 2.0735 9.0176 25.8504 0.1129 -6.6301 -7.0807 0.8950 -6.0296 -16.8703 0.0000 0.0000 0.0000 14.6083 4.6140 -0.1059 -1.5106 -7.7620 21.9936 -0.6829 11.5168 -15.7118 -0.5819 4.8846 -13.5797 -1.6987 1.4380 13.0733 0.8806 1.8141 0.9375 1.5505 0.9883 -6.4274 -11.9319 -8.1257 -17.5798 9.4317 -10.0186 30.2787 4.1711 -4.0592 14.5296 -0.0000 -0.0000 0.0000 -82.6351 5.7152 12.4228 20.1050 -30.7687 -5.5850 -0.0000 -0.0000 5.1306 20.2348 21.5346 7.7057 -7.1250 0.0000 -0.0000 -8.7710 52.5792 -1.6463 -0.0000 -0.0000 0.0000 89.4195 -2.5548 13.5454 -19.1549 29.6107 -5.1071 0.0000 0.0000 8.6090 -19.1524 5.3450 -1.8530 7.1250 -0.0000 -0.0000 5.6135 -24.3258 2.8157
-6.6922 17.6543 8.7883 -176.5760 35.8426 -180.2020 0.0000 0.0000 0.0000 -2.5751 -16.3808 -2.5095 2.1687 9.2090 26.4513 0.1268 -5.2733 -6.8428 0.6118 -5.0061 -13.9260 0.0000 0.0000 0.0000 14.8864 4.1382 -0.1066 -1.4760 -7.6767 21.7364 -0.6763 11.3898 -15.6146 -0.5642 4.8109 -13.3700 -1.7103 1.4209 13.1900 0.8670 1.7864 0.8908 1.5448 0.9756 -6.5409 -11.9937 -8.1789 -17.5835 9.3682 -10.0509 30.3312 4.1507 -4.0858 14.5592 -0.0000 -0.0000 0.0000 -82.7930 5.9552 12.6092 20.0928 -30.7540 -5.5787 -0.0000 -0.0000 5.1941 20.5136 21.3833 7.7683 -7.1250 0.0000 -0.0000 -8.4380 52.4736 -1.5611 -0.0000 -0.0000 0.0000 89.2816 -2.5012 13.8294 -19.1088 29.5537 -5.0844 0.0000 0.0000 8.5277 -19.2020 5.3022 -1.8434 7.1250 -0.0000 -0.0000 5.5775 -24.3691 2.7919
